<mxfile host="app.diagrams.net" modified="2023-10-19T02:45:22.926Z" agent="Mozilla/5.0 (Macintosh; Intel Mac OS X 10_15_7) AppleWebKit/537.36 (KHTML, like Gecko) Chrome/116.0.0.0 Safari/537.36" version="22.0.4" etag="XwzYFXX40-pRLCgeH1qv" type="github">
  <diagram name="PÃ¡gina-1" id="Amg4_3eMxkCqDi2Fjw6T">
    <mxGraphModel>
      <root>
        <mxCell id="0" />
        <mxCell id="1" parent="0" />
      </root>
    </mxGraphModel>
  </diagram>
</mxfile>
